<svg width="25" height="24" viewBox="0 0 25 24" fill="none" xmlns="http://www.w3.org/2000/svg">
<g clip-path="url(#clip0_826_106999)">
<path d="M10.3536 18.7503C9.11306 18.7503 8.10352 19.7599 8.10352 21.0004C8.10352 22.241 9.11306 23.2505 10.3536 23.2505C11.5942 23.2505 12.6037 22.241 12.6037 21.0004C12.6037 19.7599 11.5942 18.7503 10.3536 18.7503ZM10.3536 21.7504C9.9396 21.7504 9.60359 21.4144 9.60359 21.0004C9.60359 20.5864 9.9396 20.2504 10.3536 20.2504C10.7676 20.2504 11.1037 20.5864 11.1037 21.0004C11.1037 21.4144 10.7676 21.7504 10.3536 21.7504Z" fill="#888888"/>
<path d="M19.3536 18.7503C18.1131 18.7503 17.1035 19.7599 17.1035 21.0004C17.1035 22.241 18.1131 23.2505 19.3536 23.2505C20.5942 23.2505 21.6037 22.241 21.6037 21.0004C21.6037 19.7599 20.5942 18.7503 19.3536 18.7503ZM19.3536 21.7504C18.9396 21.7504 18.6036 21.4144 18.6036 21.0004C18.6036 20.5864 18.9396 20.2504 19.3536 20.2504C19.7676 20.2504 20.1037 20.5864 20.1037 21.0004C20.1037 21.4144 19.7676 21.7504 19.3536 21.7504Z" fill="#888888"/>
<path d="M24.4291 4.0196C24.2881 3.8486 24.0766 3.74959 23.8546 3.74959H6.22578L5.57325 1.30598C5.48624 0.977461 5.18923 0.749451 4.84871 0.749451H1.35355C0.939531 0.749451 0.603516 1.08547 0.603516 1.49949C0.603516 1.91351 0.939531 2.24952 1.35355 2.24952H4.27269L8.12937 16.6937C8.21637 17.0222 8.51339 17.2502 8.8539 17.2502H20.8545C21.2685 17.2502 21.6045 16.9142 21.6045 16.5002C21.6045 16.0862 21.2685 15.7502 20.8545 15.7502H9.42993L8.99041 14.1031L22.3875 13.5C22.7371 13.4835 23.0296 13.2285 23.0911 12.885L24.5911 4.63463C24.6316 4.41562 24.5716 4.19061 24.4291 4.0196ZM21.7245 12.0285L8.59289 12.6195L6.6263 5.24966H22.9561L21.7245 12.0285Z" fill="#888888"/>
</g>
<defs>
<clipPath id="clip0_826_106999">
<rect width="24" height="24" fill="white" transform="translate(0.603516)"/>
</clipPath>
</defs>
</svg>
