<svg width="21" height="21" viewBox="0 0 21 21" fill="none" xmlns="http://www.w3.org/2000/svg">
<g clip-path="url(#clip0_826_107814)">
<path d="M16.6309 3.63106L17.2648 3.42468L17.9159 5.42484L17.2819 5.63106L16.6309 3.63106Z" fill="#616161"/>
<path d="M15.6543 5.96462L16.2882 5.75824L16.9395 7.75808L16.3055 7.96462L15.6543 5.96462Z" fill="#616161"/>
<path d="M4.41406 6.93704C4.34375 7.44632 4.49235 7.96162 4.82341 8.35501L5.30469 8.95869V14.528H5.97135V9.48441L6.45296 9.80537C6.5651 9.88008 6.71094 9.88008 6.82308 9.80537L7.63802 9.26142L8.45296 9.80472C8.5651 9.87942 8.71094 9.87942 8.82308 9.80472L9.63802 9.26142L10.453 9.80472C10.5651 9.87942 10.7109 9.87942 10.8231 9.80472L11.638 9.26142L12.453 9.80472C12.5651 9.87942 12.7109 9.87942 12.8231 9.80472L13.638 9.26142L14.3047 9.70576V19.8614H6.97135V20.528H16.3047C17.2248 20.5269 17.9702 19.7814 17.9714 18.8614V8.86136C17.9705 8.78812 17.9453 8.71715 17.8997 8.6597L19.826 3.53144C20.0853 2.84248 19.9904 2.07034 19.5721 1.46471C19.1746 0.877146 18.5109 0.525909 17.8018 0.528025C16.8978 0.536488 16.0926 1.10127 15.777 1.94843L15.2544 3.33971L14.638 2.72334V1.52802C14.638 1.34394 14.4888 1.19469 14.3047 1.19469H10.638C10.4539 1.19469 10.3047 1.34394 10.3047 1.52802V2.09996C9.9279 1.75849 9.35954 1.73912 8.96029 2.05439V1.52802C8.96029 0.982452 8.51807 0.540069 7.97233 0.540069C7.42676 0.540069 6.98438 0.982452 6.98438 1.52802V2.05472C6.80192 1.90351 6.57227 1.82083 6.33529 1.82132C6.06022 1.82067 5.79655 1.93167 5.60466 2.1291C5.20931 2.53649 5.20687 3.18362 5.59896 3.59411L5.90934 3.91442C5.79639 3.96618 5.69385 4.03812 5.60677 4.12666L5.60466 4.12796L5.6014 4.13138C5.52376 4.21113 5.45947 4.30293 5.4113 4.40335L5.03141 3.70169L4.44499 4.01907L5.30697 5.61006C5.26839 5.63203 5.22966 5.65335 5.19303 5.67842C5.17936 5.68769 5.16732 5.69843 5.15397 5.70771L3.8641 4.51907L3.41211 5.00931L4.69336 6.19062C4.54622 6.41572 4.45085 6.6706 4.41406 6.93704ZM11.453 8.58401L10.638 9.12796L9.82308 8.58467C9.71094 8.50996 9.5651 8.50996 9.45296 8.58467L8.64567 9.12308C8.64372 9.08971 8.63802 9.06074 8.63802 9.02868C8.63591 8.29609 9.16471 7.66963 9.88721 7.54886C10.6099 7.42793 11.3136 7.84817 11.55 8.5417C11.5156 8.55065 11.4829 8.56481 11.453 8.58401ZM12.3047 8.9053L12.2983 8.90107C12.2583 8.20039 11.8809 7.56269 11.2858 7.19046C10.6909 6.81823 9.95231 6.75768 9.30469 7.02802V4.86136H12.3047V8.9053ZM17.3047 18.8614C17.3047 19.4136 16.8569 19.8614 16.3047 19.8614H14.9714V9.70641L15.638 9.26142L16.453 9.80472C16.5651 9.87942 16.7109 9.87942 16.8231 9.80472L17.3047 9.48441V18.8614ZM16.401 2.18265C16.6183 1.59508 17.1753 1.20234 17.8018 1.19469C18.2917 1.19371 18.7498 1.43672 19.0241 1.84264C19.3184 2.26891 19.3848 2.81237 19.202 3.29707L17.138 8.79463L16.638 9.12796L15.8231 8.58467C15.7109 8.50996 15.5651 8.50996 15.453 8.58467L14.638 9.12796L13.9618 8.67711L16.401 2.18265ZM14.9971 4.0251L13.228 8.73408L12.9714 8.9053V4.66605L14.3047 3.33271L14.9971 4.0251ZM10.9714 1.86136H13.9714V2.52802H10.9714V1.86136ZM10.776 3.19469H13.5L12.5 4.19469H9.77604L10.776 3.19469ZM6.0804 2.59671C6.1473 2.5277 6.23926 2.48864 6.33529 2.48864C6.43148 2.4888 6.52344 2.5277 6.59033 2.59671L7.07975 3.09671C7.17481 3.19371 7.31917 3.22317 7.44466 3.17158C7.57015 3.11982 7.65186 2.9971 7.65104 2.86136V1.52802C7.64567 1.4097 7.70573 1.29804 7.80729 1.23733C7.90902 1.17646 8.03581 1.17646 8.13737 1.23733C8.2391 1.29804 8.29915 1.4097 8.29362 1.52802V2.86136C8.29378 2.99661 8.37565 3.11836 8.50098 3.16946C8.62614 3.22073 8.76986 3.19111 8.86475 3.09476L9.35563 2.59476C9.49626 2.45625 9.72184 2.45625 9.86231 2.59476C10.0072 2.74303 10.0072 2.97968 9.86231 3.12796L8.88037 4.12796L8.8903 4.13805L8.73568 4.29267C8.70882 4.32034 8.68718 4.35257 8.67139 4.38773C8.66667 4.39798 8.66406 4.4084 8.66032 4.41898C8.65039 4.44746 8.64437 4.47708 8.64242 4.50703C8.64242 4.51435 8.63835 4.52038 8.63835 4.5277V7.46797C8.5625 7.54056 8.49203 7.61852 8.42773 7.70136L7.79801 6.36136C7.56559 5.89896 7.14551 5.55879 6.64469 5.42809C6.52816 5.39798 6.40869 5.37975 6.28841 5.37405L6.20296 5.27396C6.13639 5.19762 6.0861 5.13805 6.07796 5.12975C5.99186 5.03958 5.95459 4.91328 5.97803 4.79072C5.9904 4.72106 6.02246 4.65661 6.07031 4.60468L6.07633 4.59899L6.08464 4.59004C6.2054 4.47171 6.39242 4.45429 6.53304 4.54804C6.67448 4.64261 6.86426 4.61543 6.97363 4.48522C7.08301 4.35485 7.07666 4.16328 6.95898 4.04039L6.07796 3.13105C5.9349 2.98131 5.93604 2.74515 6.0804 2.59671ZM5.07471 7.02802C5.11816 6.70495 5.29704 6.41556 5.56673 6.23229C5.83415 6.05146 6.16634 5.99417 6.479 6.07506C6.7915 6.15612 7.0542 6.36754 7.20003 6.65563L8.04964 8.46536C8.02865 8.54332 8.01204 8.62243 8 8.70234L7.82438 8.58499C7.7124 8.51028 7.56641 8.51028 7.45443 8.58499L6.63802 9.12796L5.89876 8.63463L5.82731 8.54511L6.68669 7.88073L6.27865 7.35338L5.41211 8.02363L5.33805 7.93135C5.12598 7.68135 5.03027 7.35289 5.07471 7.02802Z" fill="#616161"/>
<path d="M2.01644 19.6967C2.26969 20.2076 2.7915 20.53 3.36165 20.5281C3.59521 20.5277 3.82536 20.4734 4.03434 20.3694L4.30469 20.2341L4.57536 20.3694C4.78418 20.4734 5.01432 20.5277 5.24772 20.5281C5.81803 20.53 6.33968 20.2076 6.5931 19.6967L6.70931 19.4634C7.09961 18.6802 7.30339 17.8174 7.30469 16.9424C7.30355 15.9776 6.52181 15.1959 5.55697 15.1947C5.23177 15.1957 4.91325 15.288 4.63802 15.4613V15.1947C4.63802 14.4584 4.04102 13.8614 3.30469 13.8614V14.5281C3.67285 14.5281 3.97135 14.8266 3.97135 15.1947V15.4613C3.69613 15.288 3.3776 15.1957 3.05241 15.1947C2.08757 15.1959 1.30583 15.9776 1.30469 16.9424C1.30583 17.8176 1.5096 18.6807 1.90007 19.4641L2.01644 19.6967ZM3.05241 15.8614C3.33919 15.8606 3.61442 15.9747 3.81673 16.1781L4.06901 16.4304C4.19922 16.5604 4.41016 16.5604 4.54036 16.4304L4.79264 16.1781C5.10189 15.8689 5.56673 15.7764 5.9707 15.9437C6.37467 16.1111 6.63802 16.5053 6.63802 16.9424C6.63721 17.7143 6.45752 18.4753 6.11296 19.1661L5.99674 19.3995C5.85531 19.6835 5.56494 19.8625 5.24772 19.8614C5.11784 19.8612 4.98975 19.831 4.87337 19.773L4.45378 19.563C4.35986 19.5162 4.24951 19.5162 4.15576 19.563L3.73633 19.773C3.61995 19.831 3.4917 19.8612 3.36165 19.8614C3.04427 19.8624 2.75374 19.6828 2.61263 19.3983L2.49642 19.1651C2.15202 18.4747 1.97233 17.7139 1.97135 16.9424C1.97217 16.3458 2.45573 15.8622 3.05241 15.8614V15.8614Z" fill="#616161"/>
</g>
<defs>
<clipPath id="clip0_826_107814">
<rect width="20" height="20" fill="white" transform="translate(0.637695 0.528015)"/>
</clipPath>
</defs>
</svg>
