<svg width="25" height="24" viewBox="0 0 25 24" fill="none" xmlns="http://www.w3.org/2000/svg">
<path d="M11.0879 24C9.021 24 7.33789 22.318 7.33789 20.25C7.33789 19.836 7.67389 19.5 8.08789 19.5C8.50189 19.5 8.83789 19.836 8.83789 20.25C8.83789 21.4911 9.8479 22.5 11.0879 22.5C12.3279 22.5 13.3379 21.4911 13.3379 20.25C13.3379 19.836 13.6739 19.5 14.0879 19.5C14.5019 19.5 14.8379 19.836 14.8379 20.25C14.8379 22.318 13.155 24 11.0879 24V24Z" fill="#888888"/>
<path d="M19.3378 21H2.83783C1.87286 21 1.08789 20.215 1.08789 19.2501C1.08789 18.7379 1.31091 18.2531 1.69983 17.92C1.72491 17.898 1.75183 17.8781 1.77985 17.8599C3.2478 16.5789 4.08789 14.736 4.08789 12.7899V9.99994C4.08789 6.14008 7.22888 3 11.0878 3C11.2479 3 11.4209 3.00293 11.5809 3.03003C11.9898 3.09796 12.2659 3.48505 12.1978 3.89301C12.1299 4.30096 11.7358 4.57709 11.3348 4.50897C11.2548 4.49597 11.1669 4.5 11.0878 4.5C8.05597 4.5 5.58789 6.96698 5.58789 9.99994V12.7899C5.58789 15.206 4.52881 17.4921 2.68494 19.0609C2.66992 19.073 2.65692 19.084 2.64081 19.095C2.61389 19.129 2.58789 19.181 2.58789 19.2501C2.58789 19.3859 2.70197 19.5 2.83783 19.5H19.3378C19.4739 19.5 19.588 19.3859 19.588 19.2501C19.588 19.1799 19.562 19.129 19.5339 19.095C19.5189 19.084 19.5059 19.073 19.4909 19.0609C17.6459 17.491 16.588 15.206 16.588 12.7899V11.7001C16.588 11.2861 16.924 10.9501 17.338 10.9501C17.752 10.9501 18.088 11.2861 18.088 11.7001V12.7899C18.088 14.7371 18.929 16.5809 20.3989 17.863C20.4258 17.881 20.4518 17.9 20.4758 17.9211C20.8649 18.2531 21.088 18.7379 21.088 19.2501C21.088 20.215 20.303 21 19.3378 21V21Z" fill="#888888"/>
<path d="M18.088 9.99994C15.3309 9.99994 13.0879 7.75708 13.0879 5.00006C13.0879 2.24304 15.3309 0 18.088 0C20.845 0 23.0878 2.24304 23.0878 5.00006C23.0878 7.75708 20.845 9.99994 18.088 9.99994V9.99994ZM18.088 1.5C16.1578 1.5 14.5879 3.06995 14.5879 5.00006C14.5879 6.92999 16.1578 8.49994 18.088 8.49994C20.0179 8.49994 21.5878 6.92999 21.5878 5.00006C21.5878 3.06995 20.0179 1.5 18.088 1.5V1.5Z" fill="#888888"/>
</svg>
