<svg width="25" height="24" viewBox="0 0 25 24" fill="none" xmlns="http://www.w3.org/2000/svg">
<path d="M12.433 11.5609C14.0212 11.5609 15.3964 10.9913 16.5203 9.86737C17.6438 8.74365 18.2136 7.36871 18.2136 5.78027C18.2136 4.19238 17.644 2.81726 16.5201 1.69318C15.3962 0.569641 14.0211 0 12.433 0C10.8445 0 9.4696 0.569641 8.34589 1.69336C7.22217 2.81708 6.65234 4.1922 6.65234 5.78027C6.65234 7.36871 7.22217 8.74384 8.34589 9.86755C9.46997 10.9911 10.8451 11.5609 12.433 11.5609V11.5609ZM9.34052 2.68781C10.2028 1.82556 11.2142 1.40643 12.433 1.40643C13.6516 1.40643 14.6632 1.82556 15.5256 2.68781C16.3879 3.55023 16.8072 4.56189 16.8072 5.78027C16.8072 6.99902 16.3879 8.0105 15.5256 8.87292C14.6632 9.73535 13.6516 10.1545 12.433 10.1545C11.2146 10.1545 10.2031 9.73517 9.34052 8.87292C8.47809 8.01068 8.05878 6.99902 8.05878 5.78027C8.05878 4.56189 8.47809 3.55023 9.34052 2.68781Z" fill="#888888"/>
<path d="M22.5471 18.4548C22.5146 17.9872 22.4491 17.4771 22.3526 16.9384C22.2552 16.3956 22.1298 15.8826 21.9796 15.4136C21.8243 14.929 21.6136 14.4503 21.3527 13.9916C21.0822 13.5156 20.7643 13.101 20.4077 12.7599C20.0347 12.403 19.578 12.1161 19.0499 11.9068C18.5237 11.6986 17.9405 11.5931 17.3167 11.5931C17.0717 11.5931 16.8347 11.6937 16.3771 11.9916C16.0955 12.1752 15.7661 12.3876 15.3984 12.6226C15.084 12.8229 14.6581 13.0106 14.1321 13.1805C13.6188 13.3466 13.0977 13.4308 12.5832 13.4308C12.069 13.4308 11.5479 13.3466 11.0343 13.1805C10.5088 13.0107 10.0827 12.8231 9.76886 12.6227C9.40466 12.39 9.07507 12.1776 8.78925 11.9914C8.33203 11.6935 8.09509 11.593 7.8501 11.593C7.22607 11.593 6.64307 11.6986 6.117 11.907C5.58929 12.1159 5.13245 12.4028 4.75909 12.7601C4.4024 13.1014 4.08453 13.5157 3.81427 13.9916C3.55371 14.4503 3.34277 14.9288 3.1875 15.4138C3.03754 15.8828 2.91211 16.3956 2.8147 16.9384C2.71802 17.4763 2.65265 17.9866 2.62024 18.4554C2.58838 18.9137 2.57227 19.3907 2.57227 19.8726C2.57227 21.1254 2.97052 22.1396 3.75586 22.8876C4.53149 23.6257 5.55762 24 6.80585 24H18.362C19.6099 24 20.636 23.6257 21.4118 22.8876C22.1973 22.1402 22.5956 21.1256 22.5956 19.8724C22.5954 19.3889 22.5791 18.9119 22.5471 18.4548V18.4548ZM20.4421 21.8687C19.9296 22.3564 19.2491 22.5936 18.3618 22.5936H6.80585C5.91833 22.5936 5.23792 22.3564 4.72559 21.8688C4.22296 21.3904 3.9787 20.7372 3.9787 19.8726C3.9787 19.4229 3.99353 18.9789 4.02319 18.5526C4.05212 18.1344 4.11127 17.675 4.19897 17.1868C4.28558 16.7047 4.39581 16.2523 4.52692 15.8427C4.65271 15.4499 4.82428 15.061 5.03705 14.6863C5.24011 14.3293 5.47375 14.0229 5.73157 13.7761C5.97272 13.5452 6.27667 13.3563 6.63483 13.2145C6.96606 13.0834 7.33832 13.0117 7.74243 13.0009C7.79169 13.027 7.87939 13.077 8.02148 13.1697C8.31061 13.3581 8.64386 13.5731 9.01227 13.8083C9.42755 14.0731 9.96259 14.3123 10.6018 14.5186C11.2553 14.7299 11.9218 14.8372 12.5834 14.8372C13.2449 14.8372 13.9116 14.7299 14.5648 14.5188C15.2045 14.3121 15.7394 14.0731 16.1552 13.808C16.5322 13.567 16.8561 13.3583 17.1453 13.1697C17.2874 13.0772 17.3751 13.027 17.4243 13.0009C17.8286 13.0117 18.2009 13.0834 18.5323 13.2145C18.8903 13.3563 19.1942 13.5454 19.4354 13.7761C19.6932 14.0228 19.9268 14.3291 20.1299 14.6865C20.3428 15.061 20.5146 15.4501 20.6402 15.8425C20.7715 16.2526 20.8819 16.7049 20.9683 17.1866C21.0558 17.6757 21.1152 18.1353 21.1441 18.5528V18.5532C21.174 18.9778 21.189 19.4216 21.1891 19.8726C21.189 20.7374 20.9447 21.3904 20.4421 21.8687V21.8687Z" fill="#888888"/>
</svg>
